<?xml version="1.0" standalone="no"?>
<!DOCTYPE svg PUBLIC "-//W3C//DTD SVG 20010904//EN"
 "http://www.w3.org/TR/2001/REC-SVG-20010904/DTD/svg10.dtd">
<svg version="1.0" xmlns="http://www.w3.org/2000/svg"
 width="512.000000pt" height="512.000000pt" viewBox="0 0 512.000000 512.000000"
 preserveAspectRatio="xMidYMid meet">

<g transform="translate(0.000000,512.000000) scale(0.100000,-0.100000)"
fill="#000000" stroke="none">
<path d="M4431 4444 c-222 -60 -366 -278 -331 -501 42 -262 301 -434 555 -368
128 34 239 127 298 252 30 64 32 74 32 183 0 109 -2 119 -32 183 -38 80 -122
173 -191 210 -101 55 -224 70 -331 41z m179 -302 c123 -61 98 -253 -35 -278
-48 -9 -92 4 -131 38 -127 112 13 317 166 240z"/>
<path d="M1263 3545 c-132 -29 -222 -93 -269 -194 -37 -78 -40 -189 -6 -223
20 -21 32 -23 116 -23 85 0 97 2 119 23 17 17 28 40 32 73 11 79 29 93 122 97
99 4 136 -15 153 -79 20 -72 -6 -175 -49 -198 -10 -6 -44 -14 -74 -17 -78 -9
-102 -35 -102 -114 0 -83 21 -104 122 -118 64 -9 81 -15 107 -41 29 -30 31
-36 34 -119 5 -144 -37 -192 -170 -192 -103 0 -168 35 -168 90 0 47 -20 88
-48 98 -76 29 -188 21 -225 -16 -16 -16 -20 -33 -19 -79 3 -209 185 -352 448
-353 275 0 441 122 475 350 27 182 -22 309 -142 371 l-39 19 44 43 c65 63 89
135 90 267 1 119 -18 177 -77 238 -89 93 -297 135 -474 97z"/>
<path d="M2449 3549 c-126 -18 -241 -88 -296 -180 -58 -98 -63 -137 -63 -506
0 -208 4 -352 11 -385 44 -204 206 -318 454 -318 199 0 346 74 414 209 66 128
68 348 5 473 -60 119 -174 177 -350 178 -89 0 -157 -16 -202 -49 -17 -11 -33
-21 -37 -21 -4 0 -6 51 -3 114 4 86 10 124 25 153 38 75 157 106 248 64 52
-23 63 -38 74 -97 11 -60 43 -90 106 -99 68 -11 128 2 156 31 34 36 34 148 1
216 -85 173 -288 255 -543 217z m217 -789 c40 -37 54 -80 54 -167 0 -88 -17
-134 -63 -167 -41 -30 -163 -30 -204 0 -52 39 -67 79 -67 174 0 147 44 193
176 188 65 -3 80 -7 104 -28z"/>
<path d="M3590 3549 c-111 -19 -216 -84 -268 -167 -65 -103 -67 -119 -67 -522
0 -406 3 -430 67 -526 74 -109 187 -163 363 -171 184 -9 301 31 395 134 27 30
59 79 72 111 22 55 23 68 26 417 3 252 0 377 -8 415 -16 74 -64 163 -113 206
-103 93 -284 133 -467 103z m228 -276 c15 -11 36 -35 47 -54 19 -32 20 -52 20
-359 0 -310 -1 -327 -21 -360 -33 -56 -77 -80 -149 -80 -73 0 -120 25 -147 80
-16 31 -18 70 -18 355 0 295 2 323 20 363 15 32 30 48 62 63 56 26 146 22 186
-8z"/>
<path d="M555 3059 c-134 -72 -329 -240 -411 -355 -266 -372 -157 -789 291
-1111 328 -237 891 -424 1470 -490 77 -8 146 -17 154 -19 9 -3 -20 -40 -82
-102 -100 -102 -113 -126 -104 -192 11 -82 88 -138 171 -125 37 6 64 30 274
239 329 327 329 292 14 608 -119 120 -230 224 -248 233 -124 58 -253 -62 -204
-191 6 -14 40 -58 77 -96 l67 -69 -39 6 c-216 29 -286 40 -390 61 -638 129
-1117 386 -1254 673 -33 69 -36 84 -36 162 0 79 3 91 39 163 49 101 163 217
303 309 73 48 105 76 117 101 65 136 -75 266 -209 195z"/>
<path d="M4511 2998 c-54 -37 -75 -72 -75 -125 0 -27 6 -58 12 -70 7 -12 55
-56 107 -97 263 -210 329 -421 198 -629 -37 -59 -146 -170 -223 -227 -273
-201 -766 -372 -1270 -440 -123 -17 -165 -48 -184 -137 -9 -40 22 -115 57
-138 50 -32 83 -35 217 -15 1157 173 1875 700 1756 1290 -34 164 -114 299
-263 440 -170 162 -256 200 -332 148z"/>
</g>
</svg>
