<svg width="38" height="38" viewBox="0 0 38 38" fill="none" xmlns="http://www.w3.org/2000/svg">
<path d="M37.7407 18.8703C37.7407 29.2921 29.2921 37.7407 18.8703 37.7407C8.44853 37.7407 0 29.2921 0 18.8703C0 8.44853 8.44853 0 18.8703 0C29.2921 0 37.7407 8.44853 37.7407 18.8703Z" fill="white"/>
<path fill-rule="evenodd" clip-rule="evenodd" d="M11.101 12.6C10.7142 12.6 10.4006 12.9582 10.4006 13.4V24.6C10.4006 25.0418 10.7142 25.4 11.101 25.4H23.7067C24.0935 25.4 24.4071 25.0418 24.4071 24.6V13.4C24.4071 12.9582 24.0935 12.6 23.7067 12.6H11.101ZM9 13.4C9 12.0745 9.94063 11 11.101 11H23.7067C24.8671 11 25.8077 12.0745 25.8077 13.4V24.6C25.8077 25.9255 24.8671 27 23.7067 27H11.101C9.94063 27 9 25.9255 9 24.6V13.4Z" fill="#D0D0D0"/>
<path fill-rule="evenodd" clip-rule="evenodd" d="M30.1173 15.4352L26.3382 17.0796V19.9806L30.1173 21.625C30.1767 21.6461 30.2558 21.6425 30.3588 21.5304C30.4732 21.4059 30.5844 21.1648 30.5844 20.8337V16.2265C30.5844 15.8954 30.4732 15.6543 30.3588 15.5298C30.2558 15.4177 30.1767 15.4141 30.1173 15.4352ZM31.3408 14.3777C31.7572 14.8311 31.9998 15.5018 31.9998 16.2265V20.8337C31.9998 21.5584 31.7572 22.2291 31.3408 22.6825C30.917 23.1439 30.2905 23.3885 29.6429 23.1323L29.6326 23.1283L24.9229 21.0789V15.9813L29.6326 13.9319L29.6429 13.9279C30.2905 13.6717 30.917 13.9163 31.3408 14.3777Z" fill="#D0D0D0"/>
<path fill-rule="evenodd" clip-rule="evenodd" d="M16.0771 16.6463C16.0771 16.1265 16.3742 15.7051 16.7406 15.7051H20.7214C21.0878 15.7051 21.3848 16.1265 21.3848 16.6463C21.3848 17.1661 21.0878 17.5874 20.7214 17.5874H16.7406C16.3742 17.5874 16.0771 17.1661 16.0771 16.6463Z" fill="#D0D0D0"/>
</svg>
