<svg width="41" height="41" viewBox="0 0 41 41" fill="none" xmlns="http://www.w3.org/2000/svg">
<rect x="0.59375" y="0.5" width="39.0943" height="39.0943" rx="19.5472" fill="white" stroke="#F29642"/>
<path fill-rule="evenodd" clip-rule="evenodd" d="M15.2828 16.3164L15.7663 22.0676C15.8016 22.5102 16.1633 22.8422 16.6051 22.8422H16.6083H25.3577H25.3593C25.7771 22.8422 26.1339 22.5311 26.1932 22.1181L26.955 16.8585C26.9727 16.7334 26.9414 16.6083 26.8652 16.5072C26.7898 16.4054 26.6792 16.3397 26.5541 16.322C26.3865 16.3284 19.4317 16.3188 15.2828 16.3164ZM16.6035 24.045C15.5474 24.045 14.6533 23.2207 14.5675 22.1662L13.833 13.4304L12.6245 13.2219C12.2966 13.1642 12.0776 12.8539 12.1338 12.5259C12.1915 12.1979 12.5083 11.9846 12.829 12.0359L14.4969 12.3246C14.7656 12.3719 14.9701 12.5949 14.9933 12.8675L15.1817 15.1136C26.6295 15.1184 26.6664 15.124 26.7217 15.1304C27.1683 15.1954 27.5613 15.4287 27.8291 15.788C28.0969 16.1464 28.2092 16.5882 28.145 17.0309L27.384 22.2897C27.2405 23.2904 26.3713 24.045 25.3609 24.045H25.3569H16.6099H16.6035Z" fill="#F29642"/>
<path fill-rule="evenodd" clip-rule="evenodd" d="M24.0742 19.28H21.8514C21.5186 19.28 21.25 19.0105 21.25 18.6786C21.25 18.3466 21.5186 18.0771 21.8514 18.0771H24.0742C24.4062 18.0771 24.6757 18.3466 24.6757 18.6786C24.6757 19.0105 24.4062 19.28 24.0742 19.28Z" fill="#F29642"/>
<path fill-rule="evenodd" clip-rule="evenodd" d="M16.2573 26.2236C16.4987 26.2236 16.6936 26.4185 16.6936 26.6599C16.6936 26.9012 16.4987 27.0969 16.2573 27.0969C16.0152 27.0969 15.8203 26.9012 15.8203 26.6599C15.8203 26.4185 16.0152 26.2236 16.2573 26.2236Z" fill="#F29642"/>
<mask id="mask0_627_42980" style="mask-type:alpha" maskUnits="userSpaceOnUse" x="15" y="26" width="2" height="2">
<path fill-rule="evenodd" clip-rule="evenodd" d="M15.8281 26.6594C15.8281 26.9015 16.023 27.0972 16.266 27.0972C16.5073 27.0972 16.7022 26.9015 16.7022 26.6594C16.7022 26.418 16.5073 26.2231 16.266 26.2231C16.023 26.2231 15.8281 26.418 15.8281 26.6594Z" fill="white"/>
</mask>
<g mask="url(#mask0_627_42980)">
<path fill-rule="evenodd" clip-rule="evenodd" d="M11.8125 31.106H20.7046V22.2139H11.8125V31.106Z" fill="#F29642"/>
</g>
<path fill-rule="evenodd" clip-rule="evenodd" d="M16.2564 26.4948C16.1658 26.4948 16.092 26.5686 16.092 26.6592C16.092 26.8413 16.4216 26.8413 16.4216 26.6592C16.4216 26.5686 16.347 26.4948 16.2564 26.4948ZM16.2564 27.6977C15.6838 27.6977 15.2188 27.2318 15.2188 26.6592C15.2188 26.0867 15.6838 25.6216 16.2564 25.6216C16.8289 25.6216 17.2948 26.0867 17.2948 26.6592C17.2948 27.2318 16.8289 27.6977 16.2564 27.6977Z" fill="#F29642"/>
<path fill-rule="evenodd" clip-rule="evenodd" d="M25.3042 26.2231C25.5456 26.2231 25.7412 26.418 25.7412 26.6594C25.7412 26.9007 25.5456 27.0964 25.3042 27.0964C25.062 27.0964 24.8672 26.9007 24.8672 26.6594C24.8672 26.418 25.062 26.2231 25.3042 26.2231Z" fill="#F29642"/>
<mask id="mask1_627_42980" style="mask-type:alpha" maskUnits="userSpaceOnUse" x="24" y="26" width="2" height="2">
<path fill-rule="evenodd" clip-rule="evenodd" d="M24.8672 26.6599C24.8672 26.902 25.062 27.0977 25.3042 27.0977C25.5448 27.0977 25.7412 26.902 25.7412 26.6599C25.7412 26.4185 25.5448 26.2236 25.3042 26.2236C25.062 26.2236 24.8672 26.4185 24.8672 26.6599Z" fill="white"/>
</mask>
<g mask="url(#mask1_627_42980)">
<path fill-rule="evenodd" clip-rule="evenodd" d="M20.8594 31.106H29.7523V22.2139H20.8594V31.106Z" fill="#F29642"/>
</g>
<path fill-rule="evenodd" clip-rule="evenodd" d="M25.3033 26.4953C25.2135 26.4953 25.1397 26.5691 25.1397 26.6597C25.1405 26.8433 25.4693 26.8417 25.4685 26.6597C25.4685 26.5691 25.3939 26.4953 25.3033 26.4953ZM25.3033 27.6982C24.7307 27.6982 24.2656 27.2323 24.2656 26.6597C24.2656 26.0872 24.7307 25.6221 25.3033 25.6221C25.8766 25.6221 26.3425 26.0872 26.3425 26.6597C26.3425 27.2323 25.8766 27.6982 25.3033 27.6982Z" fill="#F29642"/>
</svg>
