<svg width="48" height="17" viewBox="0 0 48 17" fill="none" xmlns="http://www.w3.org/2000/svg">
<path d="M16.2549 8.00781C16.2549 9.24674 16.0186 10.3604 15.5459 11.3486C15.0804 12.3298 14.4395 13.1676 13.623 13.8623C12.8066 14.557 11.8685 15.0869 10.8086 15.4521C9.75586 15.8174 8.64225 16 7.46777 16H0.893555V15.1836C1.4235 15.1263 1.8138 15.0547 2.06445 14.9688C2.32227 14.8828 2.48698 14.7539 2.55859 14.582C2.63021 14.4102 2.66602 14.1631 2.66602 13.8408V2.64746C2.66602 2.3252 2.63021 2.07812 2.55859 1.90625C2.48698 1.73438 2.32227 1.60547 2.06445 1.51953C1.8138 1.43359 1.4235 1.36198 0.893555 1.30469V0.488281H7.40332C9.10059 0.488281 10.6152 0.781901 11.9473 1.36914C13.2865 1.95638 14.3392 2.81217 15.1055 3.93652C15.8717 5.06087 16.2549 6.41797 16.2549 8.00781ZM13.1289 8.20117C13.1289 6.86914 12.8747 5.7054 12.3662 4.70996C11.8577 3.71452 11.138 2.9375 10.207 2.37891C9.27604 1.81315 8.17318 1.51237 6.89844 1.47656L5.50195 1.43359V15.0547L6.89844 15.0117C8.16602 14.9759 9.2653 14.6787 10.1963 14.1201C11.1344 13.5615 11.8577 12.7809 12.3662 11.7783C12.8747 10.7757 13.1289 9.58333 13.1289 8.20117ZM23.2052 7.002C21.1592 7.002 19.8392 8.784 19.8392 10.72C19.8392 12.744 21.0272 14.658 23.2272 14.658C25.4932 14.658 26.6812 12.832 26.6812 10.742C26.6812 8.674 25.3832 7.002 23.2052 7.002ZM28.3532 5.66V16H26.5932V14.57H26.5492C25.6472 15.714 24.4372 16.286 22.9852 16.286C19.9492 16.286 18.0352 13.712 18.0352 10.852C18.0352 7.904 19.9052 5.374 23.0072 5.374C24.4152 5.374 25.6912 6.034 26.5492 7.134H26.5932V5.66H28.3532ZM45.2084 0.599999H47.4084L44.3284 16H42.1284L45.2084 0.599999ZM33.2844 16H31.0844L34.1644 0.599999H36.3644L33.2844 16ZM43.7124 9.136H34.4724L34.8464 7.222H44.0864L43.7124 9.136Z" fill="white"/>
</svg>
