<svg width="39" height="38" viewBox="0 0 39 38" fill="none" xmlns="http://www.w3.org/2000/svg">
<circle cx="19.4785" cy="18.8955" r="18.8809" fill="white"/>
<mask id="path-2-inside-1_1_912" fill="white">
<path fill-rule="evenodd" clip-rule="evenodd" d="M28.4934 19.2109H28.7525C29.4227 19.2109 29.9032 18.5646 29.7101 17.9229L27.7829 11.5161C27.6558 11.0935 27.2666 10.8042 26.8253 10.8042H11.9715C11.5278 10.8042 11.1371 11.0966 11.012 11.5224L9.13004 17.9291C8.94192 18.5695 9.42204 19.2109 10.0895 19.2109H10.9316V26.6373C10.9316 27.1896 11.3793 27.6373 11.9316 27.6373H27.4934C28.0457 27.6373 28.4934 27.1896 28.4934 26.6373V19.2109Z"/>
</mask>
<path d="M28.4934 19.2109V17.8109C27.7202 17.8109 27.0934 18.4377 27.0934 19.2109H28.4934ZM29.7101 17.9229L31.0508 17.5196V17.5196L29.7101 17.9229ZM27.7829 11.5161L29.1236 11.1129L29.1236 11.1128L27.7829 11.5161ZM11.012 11.5224L12.3553 11.9169V11.9169L11.012 11.5224ZM9.13004 17.9291L7.7868 17.5345L7.7868 17.5345L9.13004 17.9291ZM10.9316 19.2109H12.3316C12.3316 18.4377 11.7048 17.8109 10.9316 17.8109V19.2109ZM28.7525 17.8109H28.4934V20.6109H28.7525V17.8109ZM28.3695 18.3262C28.2922 18.0695 28.4844 17.8109 28.7525 17.8109V20.6109C30.3609 20.6109 31.5141 19.0598 31.0508 17.5196L28.3695 18.3262ZM26.4422 11.9194L28.3695 18.3262L31.0508 17.5196L29.1236 11.1129L26.4422 11.9194ZM26.8253 12.2042C26.6488 12.2042 26.4931 12.0885 26.4422 11.9194L29.1236 11.1128C28.8184 10.0986 27.8845 9.4042 26.8253 9.4042V12.2042ZM11.9715 12.2042H26.8253V9.4042H11.9715V12.2042ZM12.3553 11.9169C12.3053 12.0872 12.149 12.2042 11.9715 12.2042V9.4042C10.9065 9.4042 9.96894 10.106 9.66879 11.1278L12.3553 11.9169ZM10.4733 18.3237L12.3553 11.9169L9.66879 11.1278L7.7868 17.5345L10.4733 18.3237ZM10.0895 17.8109C10.3565 17.8109 10.5485 18.0675 10.4733 18.3237L7.7868 17.5345C7.33531 19.0715 8.48758 20.6109 10.0895 20.6109V17.8109ZM10.9316 17.8109H10.0895V20.6109H10.9316V17.8109ZM12.3316 26.6373V19.2109H9.53157V26.6373H12.3316ZM11.9316 26.2373C12.1525 26.2373 12.3316 26.4164 12.3316 26.6373H9.53157C9.53157 27.9628 10.6061 29.0373 11.9316 29.0373V26.2373ZM27.4934 26.2373H11.9316V29.0373H27.4934V26.2373ZM27.0934 26.6373C27.0934 26.4164 27.2725 26.2373 27.4934 26.2373V29.0373C28.8189 29.0373 29.8934 27.9628 29.8934 26.6373H27.0934ZM27.0934 19.2109V26.6373H29.8934V19.2109H27.0934Z" fill="#606060" mask="url(#path-2-inside-1_1_912)"/>
<mask id="path-4-inside-2_1_912" fill="white">
<rect x="20.0449" y="10.1501" width="6.20907" height="6.29609" rx="1"/>
</mask>
<rect x="20.0449" y="10.1501" width="6.20907" height="6.29609" rx="1" fill="white" stroke="#606060" stroke-width="2.8" mask="url(#path-4-inside-2_1_912)"/>
<line x1="11.5137" y1="18.5229" x2="27.8819" y2="18.5229" stroke="#606060" stroke-width="1.4"/>
<circle cx="19.4746" cy="18.8955" r="16.334" stroke="#606060"/>
<circle cx="19.959" cy="18.8955" r="16.334" stroke="#606060"/>
</svg>
