<svg width="39" height="38" viewBox="0 0 39 38" fill="none" xmlns="http://www.w3.org/2000/svg">
<circle cx="19.4043" cy="18.8809" r="18.8809" fill="white"/>
<circle cx="19.3652" cy="18.8809" r="16.834" fill="#F1F1F1"/>
<path d="M11.5234 18.3809V24.9772C11.5234 25.6515 12.0701 26.1981 12.7444 26.1981H26.7188C27.3931 26.1981 27.9397 25.6515 27.9397 24.9772V18.3809" stroke="#606060" stroke-width="1.5" stroke-linecap="round" stroke-linejoin="round"/>
<path d="M20.8672 9C20.8672 8.58579 20.5314 8.25 20.1172 8.25C19.703 8.25 19.3672 8.58579 19.3672 9H20.8672ZM19.5869 21.2562C19.8798 21.5491 20.3546 21.5491 20.6475 21.2562L25.4205 16.4833C25.7134 16.1904 25.7134 15.7155 25.4205 15.4226C25.1276 15.1297 24.6527 15.1297 24.3598 15.4226L20.1172 19.6652L15.8745 15.4226C15.5817 15.1297 15.1068 15.1297 14.8139 15.4226C14.521 15.7155 14.521 16.1904 14.8139 16.4833L19.5869 21.2562ZM19.3672 9V20.7259H20.8672V9H19.3672Z" fill="#606060"/>
</svg>
