<svg width="15" height="11" viewBox="0 0 15 11" fill="none" xmlns="http://www.w3.org/2000/svg">
<path d="M7.02062 9.95153C4.11787 9.95153 1.6155 8.12464 0.537687 5.50018C1.6155 2.87572 4.11787 1.04883 7.02062 1.04883C9.92338 1.04883 12.4257 2.87572 13.5036 5.50018C12.4257 8.12464 9.92338 9.95153 7.02062 9.95153ZM3.32943 5.50018C3.32943 7.58235 4.96715 9.30108 7.02062 9.30108C9.0741 9.30108 10.7118 7.58235 10.7118 5.50018C10.7118 3.418 9.0741 1.69928 7.02062 1.69928C4.96715 1.69928 3.32943 3.418 3.32943 5.50018ZM5.60591 5.50018C5.60591 4.66436 6.25308 4.01964 7.02062 4.01964C7.78816 4.01964 8.43534 4.66436 8.43534 5.50018C8.43534 6.336 7.78816 6.98072 7.02062 6.98072C6.25308 6.98072 5.60591 6.336 5.60591 5.50018Z" stroke="#606060"/>
</svg>
