<svg width="38" height="38" viewBox="0 0 38 38" fill="none" xmlns="http://www.w3.org/2000/svg">
<circle cx="18.9551" cy="18.8955" r="18.8809" fill="white"/>
<mask id="path-2-inside-1_1_931" fill="white">
<path fill-rule="evenodd" clip-rule="evenodd" d="M20.078 9.75836C19.7118 9.46336 19.1895 9.46336 18.8233 9.75836L10.4838 16.4765C9.74896 17.0684 10.1675 18.2552 11.1111 18.2552H11.7248C11.7228 18.2812 11.7217 18.3074 11.7217 18.3339V27.23C11.7217 27.7823 12.1695 28.23 12.7217 28.23H26.1876C26.7399 28.23 27.1876 27.7823 27.1876 27.23V18.3339C27.1876 18.3074 27.1866 18.2812 27.1845 18.2552H27.7902C28.7338 18.2552 29.1523 17.0684 28.4175 16.4765L20.078 9.75836Z"/>
</mask>
<path d="M18.8233 9.75836L17.8823 8.59025L17.8823 8.59025L18.8233 9.75836ZM20.078 9.75836L21.019 8.59025V8.59025L20.078 9.75836ZM10.4838 16.4765L9.54276 15.3084L9.54276 15.3084L10.4838 16.4765ZM11.7248 18.2552L13.2203 18.3716C13.2527 17.9548 13.1097 17.5434 12.8258 17.2366C12.5419 16.9297 12.1428 16.7552 11.7248 16.7552V18.2552ZM27.1845 18.2552V16.7552C26.7665 16.7552 26.3674 16.9297 26.0835 17.2366C25.7996 17.5434 25.6566 17.9548 25.6891 18.3716L27.1845 18.2552ZM28.4175 16.4765L29.3585 15.3084V15.3084L28.4175 16.4765ZM19.7643 10.9265C19.5812 11.074 19.3201 11.074 19.137 10.9265L21.019 8.59025C20.1035 7.85273 18.7978 7.85273 17.8823 8.59025L19.7643 10.9265ZM11.4248 17.6446L19.7643 10.9265L17.8823 8.59025L9.54276 15.3084L11.4248 17.6446ZM11.1111 16.7552C11.5829 16.7552 11.7922 17.3486 11.4248 17.6446L9.54276 15.3084C7.70573 16.7883 8.75218 19.7552 11.1111 19.7552V16.7552ZM11.7248 16.7552H11.1111V19.7552H11.7248V16.7552ZM10.2293 18.1389C10.2243 18.2035 10.2217 18.2686 10.2217 18.3339H13.2217C13.2217 18.3463 13.2213 18.3589 13.2203 18.3716L10.2293 18.1389ZM10.2217 18.3339V27.23H13.2217V18.3339H10.2217ZM10.2217 27.23C10.2217 28.6107 11.341 29.73 12.7217 29.73V26.73C12.9979 26.73 13.2217 26.9539 13.2217 27.23H10.2217ZM12.7217 29.73H26.1876V26.73H12.7217V29.73ZM26.1876 29.73C27.5683 29.73 28.6876 28.6107 28.6876 27.23H25.6876C25.6876 26.9539 25.9115 26.73 26.1876 26.73V29.73ZM28.6876 27.23V18.3339H25.6876V27.23H28.6876ZM28.6876 18.3339C28.6876 18.2685 28.685 18.2035 28.68 18.1389L25.6891 18.3716C25.6881 18.3589 25.6876 18.3464 25.6876 18.3339H28.6876ZM27.7902 16.7552H27.1845V19.7552H27.7902V16.7552ZM27.4765 17.6446C27.1091 17.3486 27.3184 16.7552 27.7902 16.7552V19.7552C30.1491 19.7552 31.1955 16.7882 29.3585 15.3084L27.4765 17.6446ZM19.137 10.9265L27.4765 17.6446L29.3585 15.3084L21.019 8.59025L19.137 10.9265Z" fill="#D0D0D0" mask="url(#path-2-inside-1_1_931)"/>
<mask id="path-4-outside-2_1_931" maskUnits="userSpaceOnUse" x="15.4609" y="17.864" width="8" height="9" fill="black">
<rect fill="white" x="15.4609" y="17.864" width="8" height="9"/>
<path fill-rule="evenodd" clip-rule="evenodd" d="M17.6419 20.345C17.6419 20.1793 17.7762 20.045 17.9419 20.045H20.9678C21.1335 20.045 21.2678 20.1793 21.2678 20.345V25.9008H22.4488V19.6513C22.4488 19.2165 22.0963 18.864 21.6615 18.864H17.2482C16.8134 18.864 16.4609 19.2165 16.4609 19.6513V25.9008H17.6419V20.345Z"/>
</mask>
<path fill-rule="evenodd" clip-rule="evenodd" d="M17.6419 20.345C17.6419 20.1793 17.7762 20.045 17.9419 20.045H20.9678C21.1335 20.045 21.2678 20.1793 21.2678 20.345V25.9008H22.4488V19.6513C22.4488 19.2165 22.0963 18.864 21.6615 18.864H17.2482C16.8134 18.864 16.4609 19.2165 16.4609 19.6513V25.9008H17.6419V20.345Z" fill="#D0D0D0"/>
<path d="M21.2678 25.9008H21.0678V26.1008H21.2678V25.9008ZM22.4488 25.9008V26.1008H22.6488V25.9008H22.4488ZM16.4609 25.9008H16.2609V26.1008H16.4609V25.9008ZM17.6419 25.9008V26.1008H17.8419V25.9008H17.6419ZM17.9419 19.845C17.6658 19.845 17.4419 20.0688 17.4419 20.345H17.8419C17.8419 20.2898 17.8867 20.245 17.9419 20.245V19.845ZM20.9678 19.845H17.9419V20.245H20.9678V19.845ZM21.4678 20.345C21.4678 20.0688 21.244 19.845 20.9678 19.845V20.245C21.0231 20.245 21.0678 20.2898 21.0678 20.345H21.4678ZM21.4678 25.9008V20.345H21.0678V25.9008H21.4678ZM21.2678 26.1008H22.4488V25.7008H21.2678V26.1008ZM22.6488 25.9008V19.6513H22.2488V25.9008H22.6488ZM22.6488 19.6513C22.6488 19.106 22.2068 18.664 21.6615 18.664V19.064C21.9859 19.064 22.2488 19.327 22.2488 19.6513H22.6488ZM21.6615 18.664H17.2482V19.064H21.6615V18.664ZM17.2482 18.664C16.703 18.664 16.2609 19.106 16.2609 19.6513H16.6609C16.6609 19.327 16.9239 19.064 17.2482 19.064V18.664ZM16.2609 19.6513V25.9008H16.6609V19.6513H16.2609ZM16.4609 26.1008H17.6419V25.7008H16.4609V26.1008ZM17.4419 20.345V25.9008H17.8419V20.345H17.4419Z" fill="#D0D0D0" mask="url(#path-4-outside-2_1_931)"/>
<path d="M23.3457 12.6667V10.6477H26.5777V15.4523" stroke="#D0D0D0" stroke-width="1.5" stroke-linecap="round" stroke-linejoin="round"/>
<circle cx="18.959" cy="18.8955" r="16.334" stroke="white"/>
</svg>
