<svg class="enter-fullscreen-icon" width="24" height="24" viewBox="0 0 24 24" xmlns="http://www.w3.org/2000/svg" data-enter-fullscreen="true"><path fill-rule="evenodd" clip-rule="evenodd" d="M16 5L17.5858 5L14.2929 8.29292C13.9024 8.68345 13.9024 9.31661 14.2929 9.70714C14.6834 10.0977 15.3166 10.0977 15.7071 9.70714L19 6.41426V8C19 8.55228 19.4477 9 20 9C20.5523 9 21 8.55228 21 8V4C21 3.73478 20.8946 3.48043 20.7071 3.29289C20.5196 3.10536 20.2652 3 20 3H16C15.4477 3 15 3.44772 15 4C15 4.55228 15.4477 5 16 5ZM5 8.00002V6.4142L8.29292 9.70712C8.68345 10.0976 9.31661 10.0976 9.70714 9.70712C10.0977 9.3166 10.0977 8.68343 9.70714 8.29291L6.41424 5.00001L8 5.00002C8.55228 5.00002 9 4.5523 9 4.00002C9 3.44773 8.55228 3.00002 8 3.00002H4C3.73478 3.00002 3.48043 3.10537 3.29289 3.29291C3.10536 3.48044 3 3.7348 3 4.00002V8.00002C3 8.5523 3.44772 9.00001 4 9.00001C4.55228 9.00001 5 8.5523 5 8.00002ZM8.00002 19H6.4142L9.70712 15.7071C10.0976 15.3166 10.0976 14.6834 9.70712 14.2929C9.3166 13.9024 8.68343 13.9024 8.29291 14.2929L5.00001 17.5858V16C5.00001 15.4477 4.5523 15 4.00001 15C3.44773 15 3.00002 15.4477 3.00002 16L3.00002 20C3.00002 20.2652 3.10537 20.5196 3.29291 20.7071C3.48044 20.8947 3.7348 21 4.00002 21H8.00002C8.5523 21 9.00001 20.5523 9.00001 20C9.00001 19.4477 8.5523 19 8.00002 19ZM19 17.5858V16C19 15.4477 19.4477 15 20 15C20.5523 15 21 15.4477 21 16V20C21 20.2652 20.8946 20.5196 20.7071 20.7071C20.5196 20.8947 20.2652 21 20 21H16C15.4477 21 15 20.5523 15 20C15 19.4477 15.4477 19 16 19H17.5858L14.2929 15.7071C13.9023 15.3166 13.9023 14.6834 14.2929 14.2929C14.6834 13.9024 15.3166 13.9024 15.7071 14.2929L19 17.5858Z"></path></svg>