<svg width="15" height="13" viewBox="0 0 15 13" fill="none" xmlns="http://www.w3.org/2000/svg">
<path d="M2.32739 7.11541L7.29817 11.6315L7.2982 11.6316C7.3632 11.6906 7.3957 11.7201 7.42745 11.7412C7.5949 11.8522 7.81255 11.8522 7.98 11.7412C8.01175 11.7201 8.04426 11.6906 8.10926 11.6316L8.10928 11.6315L13.0801 7.11541C14.5328 5.79555 14.7078 3.57319 13.4796 2.04217L13.3212 1.84469C11.8839 0.0529788 9.07222 0.360196 8.05573 2.42003C7.91175 2.7118 7.4957 2.7118 7.35172 2.42003C6.33523 0.360196 3.52358 0.0529807 2.08624 1.8447L1.92782 2.04217C0.699613 3.57319 0.87465 5.79555 2.32739 7.11541Z" stroke="#606060" stroke-width="1.33333" stroke-linecap="round" stroke-linejoin="round"/>
</svg>
