<svg width="22" height="20" viewBox="0 0 22 20" fill="none" xmlns="http://www.w3.org/2000/svg">
<path d="M15.5531 1C14.1272 1 12.746 1.51089 11.6642 2.3653C11.1853 2.74355 10.4709 2.74355 9.99203 2.3653C8.91023 1.51089 7.52906 1 6.10313 1C2.86913 1 0.328125 3.50572 0.328125 6.69482C0.328125 10.6087 3.89813 13.7978 9.30563 18.6436L10.1604 19.4051C10.5406 19.7439 11.1147 19.7428 11.4936 19.4026L12.3506 18.6332C17.7581 13.7978 21.3281 10.6087 21.3281 6.69482C21.3281 3.50572 18.7871 1 15.5531 1ZM10.9331 17.1008C10.8749 17.1582 10.7814 17.1582 10.7231 17.1008C5.72512 12.6381 2.42812 9.68719 2.42812 6.69482C2.42812 4.62398 4.00313 3.07084 6.10313 3.07084C7.47965 3.07084 8.82574 3.81369 9.53898 4.90975C9.76332 5.25451 10.1222 5.51444 10.5335 5.51444H11.1285C11.5422 5.51444 11.9025 5.2515 12.1273 4.90425C12.835 3.81121 14.1789 3.07084 15.5531 3.07084C17.6531 3.07084 19.2281 4.62398 19.2281 6.69482C19.2281 9.68719 15.9311 12.6381 10.9331 17.1008Z" fill="#606060" stroke="white" stroke-width="0.4"/>
</svg>
