<svg width="41" height="41" viewBox="0 0 41 41" fill="none" xmlns="http://www.w3.org/2000/svg">
<rect x="0.5" y="0.5" width="39.0943" height="39.0943" rx="19.5472" fill="#F29642" stroke="#F29642"/>
<path d="M14.6858 20.6807L19.9984 25.6476L19.9984 25.6476C20.0836 25.7272 20.1262 25.7671 20.1687 25.7939C20.3412 25.9026 20.5609 25.9026 20.7334 25.7939C20.7759 25.7671 20.8185 25.7272 20.9037 25.6476L20.9037 25.6476L26.2164 20.6807C27.7193 19.2755 27.9017 16.9557 26.6366 15.333L26.4097 15.0419C24.9012 13.1068 21.8845 13.4324 20.8235 15.6447C20.6736 15.9574 20.2285 15.9574 20.0786 15.6447C19.0177 13.4324 16.0009 13.1068 14.4924 15.0419L14.2655 15.333C13.0005 16.9557 13.1828 19.2755 14.6858 20.6807Z" stroke="white" stroke-width="1.41197" stroke-linecap="round" stroke-linejoin="round"/>
</svg>
