<svg width="38" height="38" viewBox="0 0 38 38" fill="none" xmlns="http://www.w3.org/2000/svg">
<circle cx="18.8809" cy="18.8809" r="18.8809" fill="white"/>
<circle cx="18.8809" cy="18.8809" r="16.834" fill="#F1F1F1"/>
<path d="M23.325 12C22.2412 12 21.1893 12.3556 20.34 12.9573C19.8502 13.3043 19.1498 13.3043 18.66 12.9573C17.8107 12.3556 16.7588 12 15.675 12C13.057 12 11 13.9782 11 16.4959C11 19.5779 13.8752 22.0907 18.2339 25.8998L18.2675 25.9292L18.8416 26.428C19.2189 26.7558 19.7802 26.7547 20.1562 26.4255L20.7325 25.921L20.7433 25.9116C25.1147 22.0994 28 19.5833 28 16.4959C28 13.9782 25.943 12 23.325 12ZM19.585 24.7112C19.5375 24.7568 19.4625 24.7568 19.415 24.7112C15.369 21.188 12.7 18.8583 12.7 16.4959C12.7 14.861 13.975 13.6349 15.675 13.6349C16.7415 13.6349 17.7854 14.172 18.3792 14.9767C18.6216 15.3051 18.9769 15.564 19.3851 15.564H19.6186C20.0292 15.564 20.386 15.302 20.6293 14.9713C21.2193 14.1696 22.2609 13.6349 23.325 13.6349C25.025 13.6349 26.3 14.861 26.3 16.4959C26.3 18.8583 23.631 21.188 19.585 24.7112Z" fill="#606060"/>
<path d="M23.325 12C22.2412 12 21.1893 12.3556 20.34 12.9573C19.8502 13.3043 19.1498 13.3043 18.66 12.9573C17.8107 12.3556 16.7588 12 15.675 12C13.057 12 11 13.9782 11 16.4959C11 19.5779 13.8752 22.0907 18.2339 25.8998L18.2675 25.9292L18.8416 26.428C19.2189 26.7558 19.7802 26.7547 20.1562 26.4255L20.7325 25.921L20.7433 25.9116C25.1147 22.0994 28 19.5833 28 16.4959C28 13.9782 25.943 12 23.325 12ZM19.585 24.7112C19.5375 24.7568 19.4625 24.7568 19.415 24.7112C15.369 21.188 12.7 18.8583 12.7 16.4959C12.7 14.861 13.975 13.6349 15.675 13.6349C16.7415 13.6349 17.7854 14.172 18.3792 14.9767C18.6216 15.3051 18.9769 15.564 19.3851 15.564H19.6186C20.0292 15.564 20.386 15.302 20.6293 14.9713C21.2193 14.1696 22.2609 13.6349 23.325 13.6349C25.025 13.6349 26.3 14.861 26.3 16.4959C26.3 18.8583 23.631 21.188 19.585 24.7112Z" stroke="white" stroke-width="0.4"/>
</svg>
