<svg width="38" height="38" viewBox="0 0 38 38" fill="none" xmlns="http://www.w3.org/2000/svg">
<circle cx="18.8809" cy="18.8809" r="18.8809" fill="white"/>
<circle cx="18.834" cy="18.8809" r="16.834" fill="#F1F1F1"/>
<path d="M13 17C11.9 17 11 17.9 11 19C11 20.1 11.9 21 13 21C14.1 21 15 20.1 15 19C15 17.9 14.1 17 13 17ZM25 17C23.9 17 23 17.9 23 19C23 20.1 23.9 21 25 21C26.1 21 27 20.1 27 19C27 17.9 26.1 17 25 17ZM19 17C17.9 17 17 17.9 17 19C17 20.1 17.9 21 19 21C20.1 21 21 20.1 21 19C21 17.9 20.1 17 19 17Z" fill="#747474"/>
</svg>
