<svg width="41" height="41" viewBox="0 0 41 41" fill="none" xmlns="http://www.w3.org/2000/svg">
<rect x="1.14062" y="0.5" width="39.0943" height="39.0943" rx="19.5472" fill="white" stroke="#F29642"/>
<path d="M13 16.5C13 15.837 13.2799 15.2011 13.778 14.7322C14.2761 14.2634 14.9518 14 15.6562 14H27.3438C28.0482 14 28.7239 14.2634 29.222 14.7322C29.7201 15.2011 30 15.837 30 16.5V23.5C30 24.163 29.7201 24.7989 29.222 25.2678C28.7239 25.7366 28.0482 26 27.3438 26H15.6562C14.9518 26 14.2761 25.7366 13.778 25.2678C13.2799 24.7989 13 24.163 13 23.5V16.5ZM15.6562 15C15.2336 15 14.8282 15.158 14.5293 15.4393C14.2304 15.7206 14.0625 16.1022 14.0625 16.5V17.8H28.9375V16.5C28.9375 16.1022 28.7696 15.7206 28.4707 15.4393C28.1718 15.158 27.7664 15 27.3438 15H15.6562ZM14.0625 23.5C14.0625 23.8978 14.2304 24.2794 14.5293 24.5607C14.8282 24.842 15.2336 25 15.6562 25H27.3438C27.7664 25 28.1718 24.842 28.4707 24.5607C28.7696 24.2794 28.9375 23.8978 28.9375 23.5V18.8H14.0625V23.5ZM24.5813 22.2C24.4404 22.2 24.3052 22.2527 24.2056 22.3464C24.106 22.4402 24.05 22.5674 24.05 22.7C24.05 22.8326 24.106 22.9598 24.2056 23.0536C24.3052 23.1473 24.4404 23.2 24.5813 23.2H26.9188C27.0596 23.2 27.1948 23.1473 27.2944 23.0536C27.394 22.9598 27.45 22.8326 27.45 22.7C27.45 22.5674 27.394 22.4402 27.2944 22.3464C27.1948 22.2527 27.0596 22.2 26.9188 22.2H24.5813Z" fill="#F29642"/>
</svg>
