<svg width="39" height="38" viewBox="0 0 39 38" fill="none" xmlns="http://www.w3.org/2000/svg">
<circle cx="19.6465" cy="18.8809" r="18.8809" fill="white"/>
<circle cx="19.6465" cy="18.8809" r="16.834" fill="#F1F1F1"/>
<path d="M21.9715 11.9854L22.141 11.8816L22.105 11.6861C22.0724 11.5093 22.0557 11.3296 22.0551 11.1494C22.0552 10.3865 22.3441 9.65761 22.8539 9.12225C23.3635 8.58724 24.0514 8.28947 24.7656 8.28947C25.4798 8.28947 26.1678 8.58724 26.6773 9.12225C27.1873 9.65774 27.4762 10.3869 27.4762 11.15C27.4762 11.9131 27.1873 12.6423 26.6773 13.1777C26.1678 13.7128 25.4798 14.0105 24.7656 14.0105H24.7656C24.1279 14.0106 23.5087 13.7732 23.0186 13.3372L22.8581 13.1945L22.675 13.3067L15.5597 17.6646L15.3902 17.7684L15.4263 17.9639C15.4588 18.1405 15.4755 18.32 15.4761 18.5C15.4755 18.68 15.4588 18.8595 15.4263 19.0361L15.3902 19.2316L15.5597 19.3354L22.6769 23.6954L22.8602 23.8077L23.0207 23.6646C23.5102 23.2284 24.1287 22.9903 24.766 22.9895C25.4801 22.9896 26.1679 23.2873 26.6773 23.8223C27.1873 24.3577 27.4762 25.0869 27.4762 25.85C27.4762 26.6131 27.1873 27.3423 26.6773 27.8778C26.1678 28.4128 25.4798 28.7105 24.7656 28.7105C24.0514 28.7105 23.3635 28.4128 22.8539 27.8778C22.3441 27.3424 22.0552 26.6135 22.0551 25.8506C22.0557 25.6704 22.0724 25.4907 22.105 25.3139L22.141 25.1184L21.9715 25.0146L14.8524 20.6546L14.669 20.5423L14.5086 20.6854C14.0196 21.1212 13.4017 21.3592 12.7651 21.3605C12.0511 21.3604 11.3633 21.0626 10.8539 20.5278C10.3439 19.9923 10.0551 19.2631 10.0551 18.5C10.0551 17.7369 10.3439 17.0077 10.8539 16.4723C11.3635 15.9372 12.0514 15.6395 12.7656 15.6395H12.7657C13.4033 15.6394 14.0225 15.8768 14.5127 16.3128L14.6731 16.4555L14.8563 16.3433L21.9715 11.9854Z" fill="#606060" stroke="#F1F1F1" stroke-width="0.578947"/>
</svg>
