<svg width="18" height="21" viewBox="0 0 18 21" fill="none" xmlns="http://www.w3.org/2000/svg">
<path d="M12.2059 3.98543L12.3754 3.88159L12.3394 3.68608C12.3068 3.50928 12.29 3.3296 12.2895 3.14943C12.2896 2.38654 12.5784 1.65761 13.0883 1.12225C13.5978 0.587241 14.2858 0.289474 15 0.289474C15.7142 0.289474 16.4022 0.587241 16.9117 1.12225C17.4217 1.65774 17.7105 2.38691 17.7105 3.15C17.7105 3.91309 17.4217 4.64226 16.9117 5.17775C16.4022 5.71276 15.7142 6.01053 15 6.01053H15C14.3623 6.0106 13.7431 5.77322 13.2529 5.33722L13.0925 5.1945L12.9094 5.30666L5.79412 9.66457L5.62458 9.76841L5.66064 9.96392C5.69321 10.1405 5.70991 10.32 5.71052 10.5C5.70991 10.68 5.69321 10.8595 5.66064 11.0361L5.62459 11.2316L5.7941 11.3354L12.9113 15.6954L13.0946 15.8077L13.2551 15.6646C13.7446 15.2284 14.3631 14.9904 15.0004 14.9895C15.7144 14.9896 16.4023 15.2873 16.9117 15.8223C17.4217 16.3577 17.7105 17.0869 17.7105 17.85C17.7105 18.6131 17.4217 19.3423 16.9117 19.8778C16.4022 20.4128 15.7142 20.7105 15 20.7105C14.2858 20.7105 13.5978 20.4128 13.0883 19.8778C12.5784 19.3424 12.2896 18.6135 12.2895 17.8506C12.29 17.6704 12.3068 17.4907 12.3394 17.3139L12.3754 17.1184L12.2059 17.0146L5.08673 12.6546L4.90341 12.5423L4.74294 12.6854C4.25394 13.1212 3.63612 13.3592 2.99943 13.3605C2.28544 13.3604 1.5977 13.0626 1.0883 12.5278L0.87868 12.7274L1.0883 12.5278C0.578308 11.9923 0.289474 11.2631 0.289474 10.5C0.289474 9.73691 0.578308 9.00774 1.0883 8.47225C1.59783 7.93724 2.28581 7.63947 3 7.63947H3.00003C3.63771 7.6394 4.25689 7.87678 4.74707 8.31278L4.90752 8.4555L5.09064 8.34334L12.2059 3.98543Z" fill="#606060" stroke="white" stroke-width="0.578947"/>
</svg>
