<svg width="22" height="26" viewBox="0 0 22 26" fill="none" xmlns="http://www.w3.org/2000/svg">
<path opacity="0.8" d="M10.9142 22.9151L10.913 22.9153L3.01517 24.7131L0.984093 16.872L0.983778 16.8708C0.844804 16.3398 0.949313 15.6055 1.36917 14.9156C1.36922 14.9155 1.36928 14.9154 1.36934 14.9153L9.20394 2.06262L9.20412 2.06234C9.54636 1.50006 10.0142 1.10714 10.4725 0.915389C10.9316 0.723328 11.3411 0.744453 11.6399 0.92629L20.182 6.12554C20.4808 6.30738 20.6876 6.66145 20.7279 7.15743C20.7681 7.65263 20.634 8.24868 20.2918 8.81096L20.2916 8.81125L12.4741 21.6743C12.4741 21.6743 12.474 21.6744 12.474 21.6744C12.054 22.3644 11.4498 22.7946 10.9142 22.9151Z" fill="#FFD337" stroke="white"/>
</svg>
