<svg width="95" height="114" viewBox="0 0 95 114" fill="none" xmlns="http://www.w3.org/2000/svg">
<path opacity="0.8" d="M48.3967 103.531L48.3931 103.532L12.0563 111.803L2.71159 75.7272L2.71064 75.7236C2.02259 73.0944 2.5551 69.5732 4.53463 66.3204C4.53481 66.3202 4.53498 66.3199 4.53515 66.3196L39.8723 8.34912L39.8728 8.34826C41.4905 5.6904 43.7184 3.80364 45.9474 2.87108C48.1786 1.93761 50.2908 1.99442 51.8967 2.97183L90.4247 26.4223C92.0305 27.3997 93.0513 29.2498 93.247 31.6605C93.4426 34.0687 92.79 36.9144 91.1723 39.5722L91.1718 39.5731L55.9117 97.5905C55.9116 97.5906 55.9116 97.5907 55.9115 97.5908C53.9315 100.844 51.0483 102.934 48.3967 103.531Z" fill="#28BCE9" stroke="white" stroke-width="3"/>
</svg>
