<svg width="22" height="26" viewBox="0 0 22 26" fill="none" xmlns="http://www.w3.org/2000/svg">
<path opacity="0.8" d="M11.2394 23.4561L11.2382 23.4564L3.34037 25.2541L1.30929 17.413L1.30897 17.4118C1.17 16.8808 1.27451 16.1465 1.69436 15.4566C1.69442 15.4565 1.69448 15.4564 1.69453 15.4563L9.52914 2.60364L9.52931 2.60336C9.87155 2.04107 10.3394 1.64816 10.7977 1.45641C11.2568 1.26434 11.6663 1.28547 11.9651 1.46731L20.5072 6.66655C20.8059 6.84839 21.0128 7.20246 21.0531 7.69845C21.0933 8.19364 20.9592 8.7897 20.617 9.35198L20.6168 9.35226L12.7993 22.2153C12.7993 22.2154 12.7992 22.2154 12.7992 22.2154C12.3792 22.9054 11.775 23.3356 11.2394 23.4561Z" fill="#353832" stroke="white"/>
</svg>
